# xmcd
#
# Track frame offsets: 
#        150
#        9837
#        21260
#        29623
#        39894
#        50586
#        59729
#        71410
#        82952
#        91829
#        97130
#        104949
#        115821
#        124935
#        134306
#        145359
#        158082
#        174407
#        183308
#        186898
#        199380
#        207596
#        217260
#        230251
#        239477
#        246957
#        250416
#        260146
#        270010
#        279687
#        290536
#        296472
#
# Disc length: 4129 seconds
#
# Revision: 0
# Processed by: cddbd v1.5.2PL0 Copyright (c) Steve Scherf et al.
# Submitted via: ExactAudioCopy v1.1
#
DISCID=f1101f20
DTITLE=Various Artist - Feesten Als De Beesten - Carnaval, Ambi and Après-Ski M
DTITLE=ix 2017
DYEAR=2017
DGENRE=Pop-Folk
TTITLE0=Vieze Jack - Brandweerman Jack
TTITLE1=Snollebollekes - Alaafrojack
TTITLE2=MAKJ and Timmy Trumpet Feat. Andrew W.K. - Party Till We Die
TTITLE3=Van Echelpoel - Ziet Em Duun
TTITLE4=Jettie Pallettie - 's Nachts Als Niemand Het Ziet
TTITLE5=Steve Tielens Feat. Monique - Ik En Ons Monique
TTITLE6=Swoop - De Sardienendans
TTITLE7=Feestteam and DJ Maurice - Shirt Uit and Zwaaien
TTITLE8=D-Me - Oh O O O Oh Ooh (AKA 7 Nation Army)
TTITLE9=W&W - Caribbean Rave
TTITLE10=DJ Maurice - Wo Sind Die Handjes!
TTITLE11=Yves Segers - Waar Is Mijn Vleeskroket?
TTITLE12=De Stoempers - Je Bent Te Gek
TTITLE13=Yves Segers - Ik Schreeuw Het Van De Daken (Après-Ski Versie)
TTITLE14=De Romeo's - Waanzin
TTITLE15=Bart Van Den Bossche - Ga Met Me Mee (Jij Bent De Zon)
TTITLE16=Benny Neyman - Vrijgezel
TTITLE17=Sak Noel and Salvi Feat. Sean Paul - Trumpets
TTITLE18=Major Lazer and Showtek - Believer
TTITLE19=Snollebollekes - Springen Nondeju
TTITLE20=Johan Veugelers - Ruitenwisser
TTITLE21=Sjaak Trekhaak Feat. De Bumperklevers - Tup, Tup, Tup
TTITLE22=Nicole and Hugo - Goeiemorgen, Morgen (Regi Mix)
TTITLE23=DJ Fetti - Hoelapaloe
TTITLE24=Lost Frequencies - What Is Love 2016
TTITLE25=Pikotaro - Ppap (Pen Pineapple Apple Pen)
TTITLE26=Marco Tornado - Oh Sabine!
TTITLE27=Gebroeders Ko - Het Leven Is Als Een Frikandel
TTITLE28=De Alpenzusjes - Bergje Op Bergje Af
TTITLE29=De Feestboek Ajuinen - Ie Kej'A
TTITLE30=DJ Knuffel - I Wanna Knuffel
TTITLE31=Lawineboys - Marianne
EXTD=
EXTT0=
EXTT1=
EXTT2=
EXTT3=
EXTT4=
EXTT5=
EXTT6=
EXTT7=
EXTT8=
EXTT9=
EXTT10=
EXTT11=
EXTT12=
EXTT13=
EXTT14=
EXTT15=
EXTT16=
EXTT17=
EXTT18=
EXTT19=
EXTT20=
EXTT21=
EXTT22=
EXTT23=
EXTT24=
EXTT25=
EXTT26=
EXTT27=
EXTT28=
EXTT29=
EXTT30=
EXTT31=
PLAYORDER=
